<svg xmlns="http://www.w3.org/2000/svg" role="img" viewBox="0 0 24 24"><path fill="#717171" d="M 18.4203 15.58 L 24 21.1597 L 21.1597 24 L 15.58 18.4203 C 13.9925 19.4718 12.0888 20.0841 10.0421 20.0841 C 4.49598 20.0841 0 15.5881 0 10.0421 C 0 4.49598 4.49598 0 10.0421 0 C 15.5881 0 20.0841 4.49598 20.0841 10.0421 C 20.0841 12.0888 19.4718 13.9925 18.4203 15.58 Z M 10.0421 16.0673 C 13.3697 16.0673 16.0673 13.3697 16.0673 10.0421 C 16.0673 6.71441 13.3697 4.01682 10.0421 4.01682 C 6.71441 4.01682 4.01682 6.71441 4.01682 10.0421 C 4.01682 13.3697 6.71441 16.0673 10.0421 16.0673 Z"/></svg>
